<?xml version="1.0" encoding="utf-8"?>
<!-- Generator: Adobe Illustrator 19.1.0, SVG Export Plug-In . SVG Version: 6.00 Build 0)  -->
<svg version="1.1" id="Calque_1" xmlns="http://www.w3.org/2000/svg" xmlns:xlink="http://www.w3.org/1999/xlink" x="0px" y="0px"
	 viewBox="0 0 160 100" width="160" height="100" style="enable-background:new 0 0 160 100;" xml:space="preserve">
<style type="text/css">
	.st0{fill:#EB203C;}
	.st1{fill:#EBA734;}
	.st2{fill:#008BC9;}
</style>
<g>
	<g>
		<path class="st0" d="M109.1,96.1l23-6.8l23,6.8V63.5c-24.6,1.2-40.2,7.2-45.9,9.9L109.1,96.1z"/>
		<g>
			<path class="st1" d="M109.1,48.5c6.9-0.6,23.9-0.9,45.9,6.8V33.3C131.5,35.5,115.1,44.7,109.1,48.5z"/>
			<path class="st1" d="M109.1,30c5.6,1,12,2.6,18.9,5c-8.4,2.9-14.9,6.3-18.9,8.8V30z"/>
			<path class="st1" d="M109.1,52.5l0,16.5c7.1-3.1,22.4-8.4,45.9-9.5v0c-14-5-26-6.7-33.8-7.1C115.8,52.1,111.6,52.3,109.1,52.5z"
				/>
		</g>
		<path class="st2" d="M109.1,3.9V26c7.4,1.3,15.8,3.5,25.1,7.1c6.1-1.7,13.1-3.2,20.9-3.8V3.9H109.1z"/>
	</g>
	<g>
		<path class="st1" d="M97.1,60.2v-4.2c-2-0.6-4.6-1.1-6.5-1.1c-2.9,0-6.8,0.7-9.8,1.4v23.1h4.8V59.7c1.5-0.4,3.2-0.7,4.9-0.7
			C92.5,59,95.1,59.5,97.1,60.2 M71.4,62.8c0,8.2-3.8,12.5-10.2,12.5c-6.5,0-10.2-4.3-10.2-12.5c0-8.2,3.8-12.5,10.2-12.5
			C67.6,50.3,71.4,54.6,71.4,62.8 M77.1,62.8c0-10.6-6.1-17.3-15.9-17.3c-9.8,0-15.9,6.6-15.9,17.3s6.1,17.3,15.9,17.3
			C70.9,80.1,77.1,73.4,77.1,62.8 M41.1,48.2c0-2-1.6-3.6-3.6-3.6c-2,0-3.6,1.6-3.6,3.6c0,1.8,1.3,3.2,3,3.5
			c-0.5,2.6-1.7,5.1-3.2,7.6h3.8C39.7,55.7,41.1,52.1,41.1,48.2 M22,74.8c-1.5,0.6-3.1,1-4.9,1c-4.1,0-6.6-2.9-6.6-8.4
			C10.4,62,13,59,17,59c1.6,0,3.4,0.3,4.9,0.7V74.8z M30.9,79.4v-4.1c-0.7,0.3-1.5,0.5-2.4,0.5c-1.2,0-1.7-0.6-1.7-1.7V41.8H22v13.8
			c-1.4-0.4-3.3-0.7-4.9-0.7c-7.1,0-11.7,4.8-11.7,12.6C5.4,75.2,9.9,80,17,80c2.3,0,4.4-0.6,6.3-1.4c0.9,0.9,2.4,1.4,3.9,1.4
			C28.5,80,29.9,79.7,30.9,79.4"/>
		<g>
			<path class="st1" d="M5,24c0,9.8,5.8,16,16.1,16c2.5,0,5.8-0.6,8.3-1.4v-4.4c-2.7,0.8-5.7,1.4-8.3,1.4c-7.1,0-10.8-4-10.8-11.6
				c0-7.7,3.7-11.6,10.8-11.6c2.6,0,5.6,0.6,8.3,1.4V9.4C26.9,8.6,23.6,8,21.1,8C10.8,8,5,14.3,5,24z"/>
			<polygon class="st1" points="42.6,7.2 45.4,12.1 49.6,12.1 45.2,3.9 40,3.9 35.6,12.1 39.8,12.1 			"/>
			<path class="st1" d="M42.8,14.9c-7.1,0-11.7,4.8-11.7,12.6c0,7.8,4.5,12.6,11.7,12.6c7.1,0,11.6-4.8,11.6-12.6
				C54.4,19.7,49.9,14.9,42.8,14.9z M42.8,35.9c-4.1,0-6.6-2.9-6.6-8.4c0-5.5,2.6-8.4,6.6-8.4c4,0,6.6,2.9,6.6,8.4
				C49.3,33,46.8,35.9,42.8,35.9z"/>
			<path class="st1" d="M65.1,8.3L60.3,9v6.5h-5.1v4.2h5.1v11.9c0,5.3,3.5,8.6,9.7,8.6c1,0,2.4-0.3,3.3-0.6v-4.2
				c-1,0.4-2.2,0.6-3.3,0.6c-3.3,0-4.8-1.5-4.8-4.4V19.6h8.2v-4.2h-8.2V8.3z"/>
		</g>
		<path class="st1" d="M86.5,14.9c-6.9,0-11.4,4.7-11.4,12.6c0,5.7,2.5,9.6,6.8,11.4c1.1-1.3,1.9-2.5,2.5-3.5c0-0.1,0.1-0.1,0.1-0.1
			c-2.5-0.9-4.1-2.9-4.4-6.2h17.4c0.1-0.5,0.1-1,0.1-1.6C97.6,19.6,93.5,14.9,86.5,14.9z M80.2,25.1c0.5-4.1,2.9-6.3,6.3-6.3
			c3.3,0,5.8,2.1,6.3,6.3H80.2z"/>
		<path class="st1" d="M96,36.3c0-0.2,0.1-0.4,0.1-0.5H87c-0.7,1.2-1.5,2.5-2.6,3.9h10.1C95.3,38.4,95.8,37.2,96,36.3z"/>
		<path class="st1" d="M91.4,88.5v1.4h2.4v6.3h1.3v-6.3h2.4v-1.4H91.4z M89.1,88.5v5.7l-3.8-5.7h-1.5v7.7h1.3v-5.7l3.8,5.7h1.5v-7.7
			H89.1z M78.8,89.7h3.6v-1.2h-4.9v7.7h4.9v-1.2h-3.6V93h3.1v-1.3h-3.1V89.7z M74.2,88.5l-2.1,3.2l-2.1-3.2h-1.5v7.7h1.3v-5.7
			l2.3,3.4l2.3-3.4v5.7h1.3v-7.7H74.2z M63.5,89.7h3.6v-1.2h-4.9v7.7h4.9v-1.2h-3.6V93h3.1v-1.3h-3.1V89.7z M55.1,88.5v1.4h2.4v6.3
			h1.3v-6.3h2.4v-1.4H55.1z M50,92.2v-2.4h1.5c0.8,0,1.4,0.2,1.4,1.2c0,1-0.7,1.2-1.4,1.2H50z M52.7,93.2c0.7-0.2,1.6-0.8,1.6-2.3
			c0-1.6-1-2.5-2.7-2.5h-2.8v7.7H50v-2.7h1.2l1.8,2.7h1.6L52.7,93.2z M42.9,93.1l1.1-3l1.1,3H42.9z M46.2,96.1h1.4l-2.9-7.7h-1.5
			l-2.9,7.7h1.4l0.7-1.8h3.1L46.2,96.1z M37.5,92.4h-1.3v-2.6h1.3c1.3,0,1.5,0.5,1.5,1.3C39.1,91.8,38.8,92.4,37.5,92.4 M37.6,88.5
			h-2.8v7.7h1.3v-2.5h1.4c1.7,0,2.7-0.9,2.7-2.6C40.4,89.4,39.4,88.5,37.6,88.5 M30.6,87.8h0.7l1-1.3h-1.1L30.6,87.8z M29.9,89.7
			h3.6v-1.2h-4.9v7.7h4.9v-1.2h-3.6V93H33v-1.3h-3.1V89.7z M23.6,94.9h-1.2v-5.2h1.2c1.5,0,2.2,0.7,2.2,2.6
			C25.8,94.1,25.2,94.9,23.6,94.9 M23.6,88.5h-2.6v7.7h2.6c2.3,0,3.5-1.3,3.5-3.8C27.1,89.8,25.9,88.5,23.6,88.5 M12.5,89.7h3.6
			v-1.2h-4.9v7.7h4.9v-1.2h-3.6V93h3.1v-1.3h-3.1V89.7z M6.5,94.8v-6.4H5.2v7.7h4.9v-1.3H6.5z"/>
	</g>
</g>
</svg>
