<?xml version="1.0" encoding="UTF-8"?>
<svg xmlns="http://www.w3.org/2000/svg" width="190" height="73.144">
  <defs>
    <clipPath id="a">
      <path data-name="Rectangle 828" fill="#fff" d="M0 0h190v73.144H0z"></path>
    </clipPath>
  </defs>
  <g data-name="Groupe 447" clip-path="url(#a)" fill="#fff">
    <path data-name="Tracé 367" d="m64.54 3.252-2.028 19.281H26.666c-7.986 0-15.039 5.267-15.8 14.457a13 13 0 0 0 13.119 14.458h45.12l5.071-48.2zm-3.047 28.924-1.013 9.63H25.147c-2.667 0-4.685-1.356-4.377-4.816a5.393 5.393 0 0 1 5.272-4.814z"></path>
    <path data-name="Tracé 368" d="m86.333 70.734 2.034-19.28h35.837c7.986 0 15.034-5.264 15.8-14.455a12.991 12.991 0 0 0-13.118-14.46H81.77l-5.073 48.2zm3.037-28.917 1.014-9.637h35.33c2.666 0 4.692 1.36 4.377 4.818a5.4 5.4 0 0 1-5.268 4.819z"></path>
    <path data-name="Tracé 369" d="m12.106 69.522 1.142-10.9h-2.419l-.254 2.42H2.1a1.355 1.355 0 0 0-1.33 1.223l-.764 7.257a1.056 1.056 0 0 0 1.075 1.2h9.681a1.353 1.353 0 0 0 1.344-1.2m-2.3-1.162H2.552l.517-4.951h7.258zm10.7-9.733-2.416-4.951-.254 2.42h2.424zm-.378 3.639-2.417-2.531-.89 10.987h2.42zm14.216-3.644h-2.42l-.257 2.42h2.424zm-1.392 13.3 1.01-9.659H29.12l-.248 2.364h2.423l-.646 6.147h-6.09l.144-1.538-2.4-.009-.285 2.695a1.065 1.065 0 0 0 1.091 1.221H31.6a1.359 1.359 0 0 0 1.352-1.221m17.188-2.4.763-7.256a1.065 1.065 0 0 0-1.1-1.219h-9.672a1.352 1.352 0 0 0-1.331 1.218l-.76 7.257a1.052 1.052 0 0 0 1.074 1.2H48.8a1.358 1.358 0 0 0 1.344-1.2m-2.3-1.162h-7.259l.519-4.951h7.256zm19.107 2.362.89-8.459a1.059 1.059 0 0 0-1.09-1.219h-9.683a1.358 1.358 0 0 0-1.331 1.219l-.886 8.459h2.419l.769-7.316h7.256l-.768 7.316zm39.321-5.764.282-2.677a1.055 1.055 0 0 0-1.09-1.237H94.58l-1.006 9.678h2.416l.763-7.316h7.266l-.1 1.515zm15.5 4.562.175-1.671-2.416-.035-.079.726h-7.258l.162-1.582h8.466a1.341 1.341 0 0 0 1.337-1.148l.374-3.546a1.059 1.059 0 0 0-1.093-1.219h-9.674a1.358 1.358 0 0 0-1.337 1.219l-.759 7.258a1.05 1.05 0 0 0 1.073 1.2h9.677a1.364 1.364 0 0 0 1.351-1.2m-1.928-4.747h-7.254l.152-1.546h7.269zm18.738 5.947.886-8.459a1.056 1.056 0 0 0-1.09-1.219H128.7a1.354 1.354 0 0 0-1.328 1.219l-.892 8.459h2.42l.769-7.316h7.257l-.766 7.316zm17.057-1.2.763-7.256a1.051 1.051 0 0 0-1.087-1.219h-9.677a1.352 1.352 0 0 0-1.329 1.219l-.763 7.256a1.052 1.052 0 0 0 1.079 1.2h9.676a1.351 1.351 0 0 0 1.339-1.2m-2.287-1.162h-7.269l.525-4.951h7.256zm10.7-9.733h-2.422l-.253 2.42 2.423-4.951zm-.383 3.639-2.419-2.531-.894 8.459h2.421zm16.173 7.256.376-3.564a1.068 1.068 0 0 0-1.09-1.221h-8.462l.154-1.509h7.263l-.081.725 2.373.027.232-1.715a1.058 1.058 0 0 0-1.088-1.219h-9.681a1.354 1.354 0 0 0-1.333 1.219l-.365 3.457a1.054 1.054 0 0 0 1.075 1.2h8.48l-.168 1.619h-7.257l.076-.726-2.415-.012-.185 1.718a1.05 1.05 0 0 0 1.068 1.2h9.686a1.355 1.355 0 0 0 1.344-1.2"></path>
    <path data-name="Tracé 370" d="M96.498 15.576h-12.46a1.357 1.357 0 0 1-1.385-1.549l.987-9.342a1.742 1.742 0 0 1 1.709-1.57h12.459a1.359 1.359 0 0 1 1.4 1.57l-.293 2.788h-3.113l.14-1.313h-9.344l-.669 6.373h9.344l.139-1.313h3.119l-.3 2.81a1.746 1.746 0 0 1-1.733 1.546"></path>
    <path data-name="Tracé 371" d="M141.267 15.576h-12.456a1.357 1.357 0 0 1-1.387-1.549l.985-9.342a1.745 1.745 0 0 1 1.709-1.57h12.46a1.365 1.365 0 0 1 1.4 1.57l-.294 2.788h-3.11l.136-1.313h-9.344l-.669 6.373h9.344l.143-1.313h3.122l-.3 2.81a1.747 1.747 0 0 1-1.734 1.549"></path>
    <path data-name="Tracé 372" d="M103.107 3.116 103.436 0h3.117l-.329 3.116zm-1.308 12.46 1.148-10.891h3.114l-1.144 10.891z"></path>
    <path data-name="Tracé 373" d="m121.674 7.803.175-1.642h-9.344l-.993 9.417h-3.114l1.308-12.46h14.007a1.358 1.358 0 0 1 1.4 1.592l-.32 3.094z"></path>
    <path data-name="Tracé 374" d="M160.068 15.576h-12.456a1.353 1.353 0 0 1-1.382-1.549l1.148-10.911h3.112l-.991 9.417h9.344l.991-9.417h3.116l-1.148 10.911a1.744 1.744 0 0 1-1.729 1.549"></path>
    <path data-name="Tracé 375" d="M166.216 3.116 166.542 0h3.117l-.324 3.116zm-1.311 12.46 1.144-10.89h3.116l-1.147 10.891z"></path>
    <path data-name="Tracé 376" d="M184.252 15.576h-10.889a1.3 1.3 0 0 1-1.409-1.549l.829-7.868h-1.547l.322-3.044h1.545L173.424 0h3.117l-.329 3.116h7.8l-.315 3.044h-7.8l-.664 6.373h7.791l.172-1.617 3.12-.009-.333 3.121a1.764 1.764 0 0 1-1.732 1.549"></path>
    <path data-name="Tracé 377" d="M190 63.65a3.227 3.227 0 1 1-3.216-3.14A3.155 3.155 0 0 1 190 63.65m-5.647 0a2.432 2.432 0 0 0 2.45 2.507 2.4 2.4 0 0 0 2.393-2.488 2.423 2.423 0 1 0-4.843-.019m1.932 1.646h-.727v-3.139a6.341 6.341 0 0 1 1.207-.1 1.955 1.955 0 0 1 1.091.23.867.867 0 0 1 .306.689.805.805 0 0 1-.651.728v.038a.926.926 0 0 1 .574.766 2.418 2.418 0 0 0 .23.785h-.785a2.7 2.7 0 0 1-.248-.766c-.058-.345-.249-.5-.651-.5h-.346zm.02-1.78h.345c.4 0 .727-.134.727-.46 0-.287-.211-.479-.67-.479a1.747 1.747 0 0 0-.4.039z"></path>
  </g>
</svg>
