<svg xmlns="http://www.w3.org/2000/svg" xmlns:xlink="http://www.w3.org/1999/xlink" width="231.813" height="39.208" viewBox="0 0 231.813 39.208">
  <defs>
    <clipPath id="clip-path">
      <rect id="Rectangle_1122" data-name="Rectangle 1122" width="231.813" height="39.208" fill="none"/>
    </clipPath>
  </defs>
  <g id="Groupe_6625" data-name="Groupe 6625" transform="translate(0 0)">
    <path id="Tracé_2777" data-name="Tracé 2777" d="M9.165.279,0,37.69H18.073l3.49-14.246H44.97l2.181-8.917H23.744l1.139-4.651H52.149l2.361-9.6Z" transform="translate(0.001 0.616)" fill="#6f767e"/>
    <path id="Tracé_2778" data-name="Tracé 2778" d="M24.264.279,15.106,37.69H33.153l3.5-14.246h23.4l2.188-8.917H38.85l1.129-4.651H67.248l2.345-9.6Z" transform="translate(33.351 0.616)" fill="#6f767e"/>
    <g id="Groupe_2256" data-name="Groupe 2256" transform="translate(0 0)">
      <g id="Groupe_2255" data-name="Groupe 2255" clip-path="url(#clip-path)">
        <path id="Tracé_2779" data-name="Tracé 2779" d="M48.27,25.72a4.329,4.329,0,0,0,.058,2.473c.757,2.249,4.59,2.73,7.946,2.73,2.977,0,7.625-.629,8.314-3.4.475-1.954-1.931-2.476-11.586-4.308-8.866-1.678-19.067-3.3-17.226-10.852C37.886,3.718,50.374,0,62.457,0,75.189,0,85.681,3.092,83.94,12.2H66.862c.67-1.4-.093-2.345-1.4-2.974a11.844,11.844,0,0,0-5.116-.949c-2.451,0-6.6.42-7.1,2.518-.327,2.662,7.91,3.243,15.84,4.719s15.538,3.929,13.873,10.8c-2.39,9.742-17.206,12.892-30.271,12.892-6.64,0-25.242-1.533-22.483-13.489Z" transform="translate(66.07 0.001)" fill="#6f767e"/>
        <path id="Tracé_2780" data-name="Tracé 2780" d="M83.68,24.336,81.243,12.788h-.157L72.578,24.336ZM75.366.278H93.015l12.2,37.412H86.481l-1.155-5.35H66.676l-3.923,5.35H44.591Z" transform="translate(98.445 0.615)" fill="#6f767e"/>
        <path id="Tracé_2781" data-name="Tracé 2781" d="M69.247.213h7.7l-9.3,37.97L63.274,24.592Z" transform="translate(139.692 0.471)" fill="#fff"/>
        <path id="Tracé_2782" data-name="Tracé 2782" d="M64.639,38.183l9.3-37.97H89.108l-6,24.478S80.033,38.16,64.639,38.183" transform="translate(142.706 0.472)" fill="#d80019"/>
        <path id="Tracé_2783" data-name="Tracé 2783" d="M60.824.213H74.656L68.68,24.592Z" transform="translate(134.284 0.471)" fill="#004391"/>
      </g>
    </g>
  </g>
</svg>
